<svg width="256" height="256" viewBox="0 0 256 256" fill="none" xmlns="http://www.w3.org/2000/svg">
<g clip-path="url(#clip0_72_51)">
<circle cx="128" cy="128" r="125.5" fill="#8FFFEB" stroke="#78E5D2" stroke-width="5"/>
<rect width="22.9211" height="130.004" transform="matrix(0.86241 -0.504767 0.422842 0.906912 62.3203 67.6102)" fill="#252525"/>
<rect width="21.5476" height="123.288" transform="matrix(0.901983 -0.406628 0.341115 0.949876 117.446 41.8345)" fill="#252525"/>
<path d="M84.6198 222.08L125.407 200.95L131.197 222.08L84.6191 240.499L84.6198 222.08Z" fill="#252525"/>
<path d="M84.6198 222.08L125.407 200.95L131.197 222.08L84.6191 240.499L84.6198 222.08Z" fill="#252525"/>
<path d="M120.238 203.661L161.335 176.033L175.035 194.452L131.197 222.08L120.238 203.661Z" fill="#252525"/>
<path d="M120.238 203.661L161.335 176.033L175.035 194.452L131.197 222.08L120.238 203.661Z" fill="#252525"/>
<path d="M155.856 179.103L193.834 147.316L206.216 166.833L167.374 199.675L155.856 179.103Z" fill="#252525"/>
<path d="M155.856 179.103L193.834 147.316L206.216 166.833L167.374 199.675L155.856 179.103Z" fill="#252525"/>
<path d="M183.857 162.088L211.023 116.728L224.601 129.443L205.172 166.824L183.857 162.088Z" fill="#252525"/>
<path d="M183.857 162.088L211.023 116.728L224.601 129.443L205.172 166.824L183.857 162.088Z" fill="#252525"/>
</g>
<defs>
<clipPath id="clip0_72_51">
<rect width="256" height="256" fill="white"/>
</clipPath>
</defs>
</svg>
