<svg width="171" height="71" viewBox="0 0 171 71" fill="none" xmlns="http://www.w3.org/2000/svg">
<path d="M8.05078 0.998047L8.98242 12.3008L16.5938 11.6504L16.2949 0.628906L21.9199 0.347656L23.3613 27.9277L17.7363 28.209L17.0859 16.6953L9.24609 17.2227L9.49219 28.5957L4.44727 28.6484L3.02344 1.06836L8.05078 0.998047ZM33.3633 24.6582L32.1504 27.4004L27.1406 27.418L38.0215 6.42969H41.8359L48.7441 27.9805L43.084 27.752L42.5039 25.2031L33.3633 24.6582ZM39.4453 12.2832L35.0156 20.123L41.8184 20.5625L39.4453 12.2832ZM57.9375 6.53516L64.7578 18.2246L70.084 6.46484L74.707 7.71289L67.5703 22.8477L58.8867 37.1211L55.5293 33.9043L61.9629 23.1289L52.6465 6.46484L57.9375 6.53516ZM97.0488 5.90234L97.1895 10.6484C97.2363 11.4219 97.5117 17.0234 98.0156 27.4531L93.6211 27.3125C93.6211 22.9531 93.4922 20.832 93.2344 20.9492C92.8477 21.0898 92.5664 21.1953 92.3906 21.2656C92.2266 21.3359 92.0625 21.4004 91.8984 21.459C91.7344 21.5059 91.5117 21.5586 91.2305 21.6172C90.9492 21.6758 90.5215 21.7754 89.9473 21.916C89.6426 21.9863 89.3672 22.0566 89.1211 22.127C88.8867 22.1855 88.6523 22.2266 88.418 22.25C88.1953 22.2734 87.9434 22.291 87.6621 22.3027C87.3926 22.3145 87.0762 22.3086 86.7129 22.2852C85.9629 22.2383 85.3594 22.1738 84.9023 22.0918C84.457 21.998 83.9824 21.834 83.4785 21.5996C82.9746 21.377 82.5469 21.1602 82.1953 20.9492C81.8438 20.7266 81.5391 20.4863 81.2812 20.2285C81.0352 19.959 80.8184 19.6543 80.6309 19.3145C80.4551 18.9629 80.2734 18.5352 80.0859 18.0312C79.9453 17.6445 79.8105 17.1582 79.6816 16.5723C79.5645 15.9863 79.4648 15.3887 79.3828 14.7793C79.3008 14.1582 79.2305 13.5781 79.1719 13.0391C79.1133 12.5 79.0723 12.0781 79.0488 11.7734L78.7148 6.74609L83.6016 6.60547L84.1641 13.4258C84.2578 14.8672 84.5859 15.9336 85.1484 16.625C85.7109 17.3164 86.6895 17.6152 88.084 17.5215C89.4434 17.4512 90.4863 17.0059 91.2129 16.1855C91.9512 15.3535 92.2734 14.2168 92.1797 12.7754L91.6523 5.90234H97.0488ZM121.887 6.04297L122.783 25.6602L117.984 26.1348L117.281 17.4512L110.83 26.2754L106.611 27.1016L105.082 6.42969L110.602 6.93945L110.988 17.8379L117.65 6.30664L121.887 6.04297ZM146.953 19.2617C146.977 20.8203 146.824 22.1035 146.496 23.1113C146.168 24.1191 145.635 24.9219 144.896 25.5195C144.17 26.1055 143.221 26.5273 142.049 26.7852C140.877 27.0312 139.424 27.166 137.689 27.1895C137.045 27.1895 136.348 27.1426 135.598 27.0488C134.859 26.9434 134.133 26.7793 133.418 26.5566C132.715 26.3223 132.059 26.0117 131.449 25.625C130.84 25.2266 130.342 24.7285 129.955 24.1309C129.615 23.627 129.357 22.8945 129.182 21.9336C129.006 20.9727 128.871 19.9414 128.777 18.8398C128.695 17.7266 128.654 16.6191 128.654 15.5176C128.654 14.416 128.701 13.543 128.795 12.8984C129.357 11.4102 129.85 10.3848 130.271 9.82227C130.693 9.25977 131.203 8.77344 131.801 8.36328C132.41 7.94141 132.996 7.61328 133.559 7.37891C134.121 7.14453 135.393 6.83984 137.373 6.46484C139.307 6.46484 140.625 6.55859 141.328 6.74609C142.031 6.93359 142.729 7.19141 143.42 7.51953C144.123 7.84766 144.756 8.41016 145.318 9.20703C145.881 9.99219 146.209 11.3164 146.303 13.1797L142.523 13.3203L141.908 12.0723C141.193 11.3223 140.42 10.8535 139.588 10.666C138.275 10.5723 137.35 10.6191 136.811 10.8066C136.271 10.9941 135.803 11.2285 135.404 11.5098C135.018 11.791 134.66 12.2129 134.332 12.7754C134.004 13.3262 133.816 13.7188 133.77 13.9531C133.723 14.1875 133.605 14.6387 133.418 15.3066C133.418 16.0215 133.43 16.7129 133.453 17.3809C133.477 18.0371 133.523 18.6406 133.594 19.1914C133.664 19.7422 133.775 20.2227 133.928 20.6328C134.092 21.043 134.314 21.3418 134.596 21.5293C134.818 21.6699 135.012 21.7812 135.176 21.8633C135.34 21.9336 135.516 21.9805 135.703 22.0039C135.902 22.0273 136.125 22.0273 136.371 22.0039C136.629 21.9805 136.963 21.9688 137.373 21.9688C138.111 21.9688 138.75 21.9746 139.289 21.9863C139.828 21.998 140.279 21.9336 140.643 21.793C141.006 21.6406 141.305 21.377 141.539 21.002C141.785 20.6152 141.99 20.0234 142.154 19.2266L146.953 19.2617ZM152.982 27.6465L152.578 5.95508L157.043 5.70898V11.2988L160.312 11.334C161.59 11.3574 162.721 11.5625 163.705 11.9492C164.689 12.3242 165.516 12.8457 166.184 13.5137C166.852 14.1699 167.361 14.9375 167.713 15.8164C168.064 16.6953 168.264 17.6387 168.311 18.6465C168.334 19.7715 168.24 20.8613 168.029 21.916C167.83 22.9707 167.479 23.9023 166.975 24.7109C166.471 25.5078 165.809 26.1582 164.988 26.6621C164.18 27.166 163.178 27.4297 161.982 27.4531L152.982 27.6465ZM158.115 16.0801L158.15 23.2871L159.697 23.252C160.447 23.2285 161.068 23.0762 161.561 22.7949C162.053 22.502 162.434 22.1504 162.703 21.7402C162.984 21.3301 163.178 20.8848 163.283 20.4043C163.389 19.9238 163.441 19.4902 163.441 19.1035C163.418 18.6934 163.342 18.3008 163.213 17.9258C163.084 17.5391 162.861 17.2051 162.545 16.9238C162.24 16.6309 161.83 16.4082 161.314 16.2559C160.799 16.0918 160.166 16.0215 159.416 16.0449L158.115 16.0801ZM110.197 39.8359H120.604V45.373H110.197V39.8359ZM128.707 23.4004L129.34 37.6387L134.35 29.043L138.832 28.7969L133.066 39.8184L144.58 48.9062L138.568 49.4512L129.99 43.2812L130.236 49.9434L125.684 50.0664L124.348 24.2969L128.707 23.4004ZM154.02 47.6582L152.807 50.4004L147.797 50.418L158.678 29.4297H162.492L169.4 50.9805L163.74 50.752L163.16 48.2031L154.02 47.6582ZM160.102 35.2832L155.672 43.123L162.475 43.5625L160.102 35.2832Z" fill="#252525"/>
<rect width="4.18291" height="23.7248" transform="matrix(0.86241 -0.504767 0.422842 0.906912 70.4305 36.7531)" fill="#252525"/>
<rect width="3.93226" height="22.499" transform="matrix(0.901983 -0.406628 0.341115 0.949876 80.4906 32.0493)" fill="#252525"/>
<path d="M74.5 64.9427L81.9434 61.0866L83 64.9427L74.4999 68.3039L74.5 64.9427Z" fill="#252525"/>
<path d="M74.5 64.9427L81.9434 61.0866L83 64.9427L74.4999 68.3039L74.5 64.9427Z" fill="#252525"/>
<path d="M81 61.5814L88.5 56.5395L91 59.9008L83 64.9427L81 61.5814Z" fill="#252525"/>
<path d="M81 61.5814L88.5 56.5395L91 59.9008L83 64.9427L81 61.5814Z" fill="#252525"/>
<path d="M87.5 57.0997L94.4307 51.2988L96.6904 54.8606L89.602 60.8539L87.5 57.0997Z" fill="#252525"/>
<path d="M87.5 57.0997L94.4307 51.2988L96.6904 54.8606L89.602 60.8539L87.5 57.0997Z" fill="#252525"/>
<path d="M92.61 53.9947L97.5677 45.7167L100.046 48.0372L96.4999 54.8588L92.61 53.9947Z" fill="#252525"/>
<path d="M92.61 53.9947L97.5677 45.7167L100.046 48.0372L96.4999 54.8588L92.61 53.9947Z" fill="#252525"/>
</svg>
