<svg width="48" height="48" viewBox="0 0 48 48" fill="none" xmlns="http://www.w3.org/2000/svg">
<path fill-rule="evenodd" clip-rule="evenodd" d="M32 18C32 20.1217 31.1571 22.1566 29.6569 23.6569C28.1566 25.1571 26.1217 26 24 26C21.8783 26 19.8434 25.1571 18.3431 23.6569C16.8429 22.1566 16 20.1217 16 18C16 15.8783 16.8429 13.8434 18.3431 12.3431C19.8434 10.8429 21.8783 10 24 10C26.1217 10 28.1566 10.8429 29.6569 12.3431C31.1571 13.8434 32 15.8783 32 18ZM28 18C28 19.0609 27.5786 20.0783 26.8284 20.8284C26.0783 21.5786 25.0609 22 24 22C22.9391 22 21.9217 21.5786 21.1716 20.8284C20.4214 20.0783 20 19.0609 20 18C20 16.9391 20.4214 15.9217 21.1716 15.1716C21.9217 14.4214 22.9391 14 24 14C25.0609 14 26.0783 14.4214 26.8284 15.1716C27.5786 15.9217 28 16.9391 28 18Z" fill="#582C4D"/>
<path fill-rule="evenodd" clip-rule="evenodd" d="M24 2C11.85 2 2 11.85 2 24C2 36.15 11.85 46 24 46C36.15 46 46 36.15 46 24C46 11.85 36.15 2 24 2ZM6 24C6 28.18 7.426 32.028 9.816 35.084C11.4945 32.8798 13.6598 31.0935 16.1429 29.8646C18.6259 28.6358 21.3595 27.9976 24.13 28C26.8647 27.9974 29.5638 28.619 32.0219 29.8176C34.4799 31.0161 36.6319 32.7598 38.314 34.916C40.0469 32.6432 41.2137 29.9904 41.7178 27.1772C42.2219 24.3639 42.0489 21.4711 41.213 18.738C40.3771 16.0049 38.9024 13.5101 36.911 11.4601C34.9195 9.41005 32.4685 7.86372 29.7608 6.94902C27.053 6.03432 24.1664 5.77754 21.3397 6.19995C18.513 6.62235 15.8276 7.71178 13.5055 9.37811C11.1835 11.0444 9.29162 13.2397 7.98646 15.7824C6.68129 18.325 6.00036 21.1419 6 24ZM24 42C19.8679 42.0062 15.8605 40.5847 12.656 37.976C13.9459 36.1295 15.6627 34.6218 17.6604 33.5814C19.6581 32.5409 21.8776 31.9984 24.13 32C26.3543 31.9982 28.547 32.5271 30.5259 33.5428C32.5047 34.5585 34.2127 36.0317 35.508 37.84C32.2786 40.5334 28.2052 42.0059 24 42Z" fill="#582C4D"/>
</svg>
